<svg width="13" height="13" viewBox="0 0 13 13" fill="none" xmlns="http://www.w3.org/2000/svg">
<path d="M11 3.4L2.12499 12.3C1.92499 12.5 1.68733 12.6 1.41199 12.6C1.13733 12.6 0.899994 12.5 0.699994 12.3C0.499994 12.1 0.399994 11.8623 0.399994 11.587C0.399994 11.3123 0.499994 11.075 0.699994 10.875L9.59999 2H1.99999C1.71666 2 1.47899 1.90433 1.28699 1.713C1.09566 1.521 0.999994 1.28333 0.999994 1C0.999994 0.716667 1.09566 0.479 1.28699 0.287C1.47899 0.0956668 1.71666 0 1.99999 0H12C12.2833 0 12.5207 0.0956668 12.712 0.287C12.904 0.479 13 0.716667 13 1V11C13 11.2833 12.904 11.5207 12.712 11.712C12.5207 11.904 12.2833 12 12 12C11.7167 12 11.4793 11.904 11.288 11.712C11.096 11.5207 11 11.2833 11 11V3.4Z" fill="white"/>
</svg>
