<svg width="70" height="70" viewBox="0 0 70 70" fill="none" xmlns="http://www.w3.org/2000/svg">
<g clip-path="url(#clip0_0_254)">
<path d="M57.9833 53.8709C59.2666 51.8292 60.025 49.4667 60.025 46.9C60.025 39.6375 54.1625 33.775 46.9 33.775C39.6375 33.775 33.775 39.6375 33.775 46.9C33.775 54.1625 39.6375 60.025 46.8708 60.025C49.4375 60.025 51.8291 59.2667 53.8416 57.9834L62.9416 67.0834L67.0833 62.9417L57.9833 53.8709ZM46.9 54.1917C42.875 54.1917 39.6083 50.925 39.6083 46.9C39.6083 42.875 42.875 39.6084 46.9 39.6084C50.925 39.6084 54.1916 42.875 54.1916 46.9C54.1916 50.925 50.925 54.1917 46.9 54.1917ZM45.85 29.4C43.6916 29.4584 41.6208 29.925 39.725 30.7125L38.1208 28.2917L27.0375 46.3167L18.2583 36.05L7.67079 52.9959L2.91663 49.5834L17.5 26.25L26.25 36.4584L37.9166 17.5L45.85 29.4ZM53.4041 30.8584C51.5375 30.0417 49.525 29.5459 47.425 29.4292L62.3583 5.83337L67.0833 9.27504L53.4041 30.8584Z" fill="#6911AD"/>
</g>
<defs>
<clipPath id="clip0_0_254">
<rect width="70" height="70" fill="white"/>
</clipPath>
</defs>
</svg>
