<svg width="70" height="70" viewBox="0 0 70 70" fill="none" xmlns="http://www.w3.org/2000/svg">
<g clip-path="url(#clip0_0_272)">
<path d="M26.8041 18.5208C20.8541 25.2 16.7708 34.7958 16.3916 35.7L5.83331 31.1791L17.6458 19.3666C19.0166 17.9958 21 17.3833 22.925 17.7625L26.8041 18.5208ZM32.5791 49.5833C32.5791 49.5833 43.4875 45.0625 49.7583 38.7916C65.5083 23.0416 62.8833 10.7333 62.0375 7.96246C59.2666 7.08746 46.9583 4.49162 31.2083 20.2416C24.9375 26.5125 20.4166 37.4208 20.4166 37.4208L32.5791 49.5833ZM51.4791 43.1958C44.8 49.1458 35.2041 53.2291 34.3 53.6083L38.8208 64.1666L50.6333 52.3541C52.0042 50.9833 52.6166 49 52.2375 47.075L51.4791 43.1958ZM26.25 52.5C26.25 54.9208 25.2583 57.1083 23.6833 58.6833C20.2416 62.125 5.83331 64.1666 5.83331 64.1666C5.83331 64.1666 7.87498 49.7583 11.3166 46.3166C12.8916 44.7416 15.0791 43.75 17.5 43.75C22.3416 43.75 26.25 47.6583 26.25 52.5ZM37.9166 26.25C37.9166 23.0416 40.5416 20.4166 43.75 20.4166C46.9583 20.4166 49.5833 23.0416 49.5833 26.25C49.5833 29.4583 46.9583 32.0833 43.75 32.0833C40.5416 32.0833 37.9166 29.4583 37.9166 26.25Z" fill="#6911AD"/>
</g>
<defs>
<clipPath id="clip0_0_272">
<rect width="70" height="70" fill="white"/>
</clipPath>
</defs>
</svg>
