<svg width="70" height="70" viewBox="0 0 70 70" fill="none" xmlns="http://www.w3.org/2000/svg">
<g clip-path="url(#clip0_0_238)">
<path d="M55.6209 14.3792L51.5084 18.4917C55.7084 22.7209 58.3334 28.5542 58.3334 35C58.3334 47.8917 47.8917 58.3334 35 58.3334C22.1084 58.3334 11.6667 47.8917 11.6667 35C11.6667 23.1 20.5625 13.3 32.0834 11.8709V17.7625C23.8 19.1625 17.5 26.3375 17.5 35C17.5 44.6542 25.3459 52.5 35 52.5C44.6542 52.5 52.5 44.6542 52.5 35C52.5 30.1584 50.5459 25.7834 47.3667 22.6334L43.2542 26.7459C45.3542 28.875 46.6667 31.7917 46.6667 35C46.6667 41.4459 41.4459 46.6667 35 46.6667C28.5542 46.6667 23.3334 41.4459 23.3334 35C23.3334 29.575 27.0667 25.0542 32.0834 23.7417V29.9834C30.3334 31.0042 29.1667 32.8417 29.1667 35C29.1667 38.2084 31.7917 40.8334 35 40.8334C38.2084 40.8334 40.8334 38.2084 40.8334 35C40.8334 32.8417 39.6667 30.975 37.9167 29.9834V5.83337H35C18.9 5.83337 5.83337 18.9 5.83337 35C5.83337 51.1 18.9 64.1667 35 64.1667C51.1 64.1667 64.1667 51.1 64.1667 35C64.1667 26.95 60.9 19.6584 55.6209 14.3792Z" fill="#6911AD"/>
</g>
<defs>
<clipPath id="clip0_0_238">
<rect width="70" height="70" fill="white"/>
</clipPath>
</defs>
</svg>
